<?xml version="1.0" standalone="no"?>
<!DOCTYPE svg PUBLIC "-//W3C//DTD SVG 20010904//EN"
 "http://www.w3.org/TR/2001/REC-SVG-20010904/DTD/svg10.dtd">
<svg version="1.0" xmlns="http://www.w3.org/2000/svg"
 width="512.000000pt" height="512.000000pt" viewBox="0 0 512.000000 512.000000"
 preserveAspectRatio="xMidYMid meet">

<g transform="translate(0.000000,512.000000) scale(0.100000,-0.100000)"
fill="#000000" stroke="none">
<path d="M2105 5044 c-340 -76 -602 -337 -670 -669 -9 -44 -21 -143 -28 -220
l-12 -140 -306 -3 c-250 -2 -309 -5 -319 -16 -7 -9 -77 -737 -188 -1955 -172
-1894 -176 -1941 -157 -1961 l18 -20 2117 0 2117 0 18 20 c19 20 15 67 -157
1961 -112 1232 -181 1946 -189 1955 -9 11 -60 14 -283 14 l-272 0 0 163 c0
136 -4 175 -22 241 -73 264 -266 483 -510 582 -123 49 -178 59 -337 58 -132 0
-160 -4 -235 -26 l-85 -26 -85 25 c-111 32 -309 41 -415 17z m298 -110 c26 -3
47 -9 47 -14 0 -4 -18 -20 -40 -35 -63 -44 -174 -166 -219 -242 -80 -134 -110
-246 -131 -488 -6 -66 -13 -126 -15 -132 -3 -10 -65 -13 -264 -13 -143 0 -262
3 -264 8 -10 15 24 310 43 380 37 133 111 254 213 348 82 75 157 120 260 156
123 44 207 51 370 32z m707 -11 c36 -8 108 -35 160 -60 82 -40 107 -58 190
-142 109 -109 165 -207 200 -345 20 -80 27 -247 14 -328 l-7 -38 -262 0 -262
0 1 158 c0 132 -3 170 -21 237 -59 217 -172 376 -362 512 -12 8 13 14 85 21
96 10 178 5 264 -15z m-438 -89 c162 -99 285 -264 339 -459 15 -53 20 -315 7
-347 -7 -17 -37 -18 -426 -18 -230 0 -421 2 -423 5 -10 10 23 304 42 375 41
153 135 298 251 388 49 39 131 90 147 92 2 0 30 -16 63 -36z m984 -986 c-3
-29 -78 -849 -166 -1823 -88 -974 -162 -1789 -165 -1812 l-6 -43 -1395 0
c-767 0 -1394 3 -1394 8 0 21 331 3662 336 3690 l5 32 1396 0 1395 0 -6 -52z
m304 -1591 l0 -1643 -252 -177 c-178 -125 -254 -173 -256 -163 -4 16 315 3564
324 3604 4 21 9 22 94 22 l90 0 0 -1643z m294 1611 c13 -76 329 -3609 324
-3614 -4 -3 -119 77 -257 177 l-251 183 0 1643 0 1643 90 0 89 0 5 -32z m-1
-3531 c119 -87 217 -160 217 -163 0 -2 -207 -4 -460 -4 -253 0 -460 3 -460 8
1 14 463 331 474 325 6 -4 109 -79 229 -166z"/>
</g>
</svg>
